<svg width="58" height="82" viewBox="0 0 58 82" fill="none" xmlns="http://www.w3.org/2000/svg">
<g filter="url(#filter0_d_108_397)">
<path d="M39.8792 36.8762C37.5331 34.2762 34.3227 32.9143 30.8653 32.9143H27.2844C26.1731 32.9143 25.0618 32.419 24.321 31.5524C23.5801 30.6857 23.2097 29.5714 23.3331 28.4571C23.5801 26.4762 25.4323 24.8667 27.5314 24.8667H31.7296C32.9644 24.8667 33.9523 25.7333 34.1992 26.8476C34.3227 27.5905 35.0635 28.2095 35.8044 28.2095H40.6201C41.114 28.2095 41.6079 27.9619 41.8548 27.5905C42.2253 27.219 42.3487 26.7238 42.2253 26.3524C41.7314 21.4 37.9035 17.5619 32.9644 16.819V12.7333C32.9644 11.7429 32.2236 11 31.2357 11H26.5436C25.5557 11 24.8149 11.7429 24.8149 12.7333V16.9429C18.641 18.0571 14.4427 23.7524 15.0601 30.0667C15.6775 36.2571 21.234 40.9619 27.6549 40.9619H30.7418C31.8531 40.9619 32.9644 41.4571 33.7053 42.3238C34.4462 43.1905 34.8166 44.3048 34.6931 45.4191C34.4462 47.4 32.594 49.0095 30.4949 49.0095H26.2966C25.0618 49.0095 24.074 48.1429 23.8271 47.0286C23.7036 46.2857 22.9627 45.7905 22.2218 45.7905H17.4062C16.9123 45.7905 16.4184 46.0381 16.1714 46.4095C15.801 46.781 15.6775 47.2762 15.801 47.6476C16.2949 52.6 20.1227 56.4381 25.0618 57.181V61.2667C25.0618 62.2571 25.8027 63 26.7905 63H31.4827C32.4705 63 33.2114 62.2571 33.2114 61.2667V57.0571C38.5209 55.9429 42.4722 51.6095 42.9661 46.4095C43.2131 42.6952 42.1018 39.3524 39.8792 36.8762Z" fill="white"/>
</g>
<defs>
<filter id="filter0_d_108_397" x="0" y="0" width="58" height="82" filterUnits="userSpaceOnUse" color-interpolation-filters="sRGB">
<feFlood flood-opacity="0" result="BackgroundImageFix"/>
<feColorMatrix in="SourceAlpha" type="matrix" values="0 0 0 0 0 0 0 0 0 0 0 0 0 0 0 0 0 0 127 0" result="hardAlpha"/>
<feOffset dy="4"/>
<feGaussianBlur stdDeviation="7.5"/>
<feComposite in2="hardAlpha" operator="out"/>
<feColorMatrix type="matrix" values="0 0 0 0 0 0 0 0 0 0 0 0 0 0 0 0 0 0 0.25 0"/>
<feBlend mode="normal" in2="BackgroundImageFix" result="effect1_dropShadow_108_397"/>
<feBlend mode="normal" in="SourceGraphic" in2="effect1_dropShadow_108_397" result="shape"/>
</filter>
</defs>
</svg>
