<svg width="50" height="84" viewBox="0 0 50 84" fill="none" xmlns="http://www.w3.org/2000/svg">
<g filter="url(#filter0_d_108_382)">
<path d="M31.1399 44.433V39.6825C31.0793 39.6825 30.5598 39.6818 30.6115 39.6825H30.5815C29.9105 39.6743 29.4906 39.4951 29.0917 39.3263C28.6982 39.1525 28.3673 38.9652 28.0759 38.7992L27.9577 38.7319C27.4085 38.4185 26.8411 38.094 26.2192 37.85C25.9535 37.7453 25.7199 37.5943 25.5197 37.4126C25.4196 37.408 25.3195 37.4009 25.2198 37.4009C23.5145 37.4091 22.3911 38.0466 21.2019 38.7212C21.0039 38.8334 20.8062 38.9452 20.6074 39.0539L20.4361 39.1397C19.9813 39.3694 19.4146 39.6551 18.5093 39.6818H18.5018H18.4761C18.4744 39.6818 18.4726 39.6814 18.4704 39.6814L18.5016 45.1194L18.4585 58.2673C18.3335 59.8028 20.7666 63.138 22.3013 63.263C23.8361 63.388 25.2271 58.2656 25.3521 56.7302V48.038L25.3609 47.8509L25.3521 56.7302C25.4775 58.266 26.1463 64.157 27.6813 64.0316C29.2164 63.9066 31.2653 59.8028 31.1399 58.2673L31.1399 44.433Z" fill="white"/>
<path fill-rule="evenodd" clip-rule="evenodd" d="M22.2696 27.9787C22.9105 28.2716 23.6227 28.4353 24.3733 28.4353C25.1821 28.4353 25.9461 28.2454 26.6244 27.9087L29.0159 28.2884L29.0181 28.3002C30.6849 28.3123 32.1527 29.0378 33.0406 30.1156C33.9578 31.2104 34.3385 32.5393 34.3421 33.8073C34.3403 34.6685 34.1651 35.5204 33.7793 36.3076C33.3954 37.0876 32.7717 37.8227 31.8817 38.2722C31.518 38.4567 31.1113 38.5375 30.7622 38.5375H30.7476C30.1585 38.5304 29.7393 38.3701 29.3842 38.2198C29.0299 38.0634 28.7263 37.8918 28.4213 37.7195L28.4194 37.7183L28.4174 37.7172C27.8863 37.4138 27.3465 37.1054 26.7528 36.8479C27.8473 36.8097 28.7844 35.9863 28.9486 34.8957C29.0031 34.5317 28.9664 34.1752 28.8596 33.8468C29.1954 34.0145 29.4985 34.1812 29.7657 34.3319C30.0602 34.5007 30.3192 34.6485 30.5175 34.7561C30.5257 34.7415 30.5339 34.7255 30.5421 34.7094L30.5421 34.7094C30.6515 34.4929 30.7341 34.1595 30.7316 33.8069C30.7355 33.2798 30.5535 32.7551 30.2835 32.4456C30.1325 32.2818 29.973 32.145 29.7375 32.0488L30.1037 33.9536C30.072 33.9355 30.0417 33.918 30.0089 33.8995C29.5452 33.6381 29.0384 33.3667 28.4603 33.1117C28.1109 32.6782 27.6069 32.3676 27.0146 32.2786C26.4455 32.1931 25.8745 32.1496 25.3 32.1496C23.4939 32.1496 21.7462 32.6091 19.9589 33.5551C19.6444 33.7203 19.3574 33.8835 19.1159 34.0213L18.6603 34.3066C18.6942 34.4622 18.7419 34.6008 18.7968 34.7094C18.8049 34.7258 18.8135 34.7418 18.8217 34.7568C18.9501 34.6876 19.1004 34.6017 19.2705 34.5046C19.5329 34.3546 19.8423 34.1779 20.1901 33.9946C21.395 33.3571 23.1224 32.6422 25.3186 32.6461C25.8357 32.6461 26.3767 32.685 26.9402 32.7697C27.9261 32.9179 28.6049 33.8361 28.4568 34.8223C28.3086 35.8078 27.3897 36.4867 26.4042 36.3385C26.0163 36.2805 25.6569 36.2556 25.3186 36.2556C23.4813 36.2638 22.2522 36.9614 21.0565 37.64C20.8605 37.7512 20.6654 37.862 20.4686 37.9691C20.416 37.9949 20.3633 38.0215 20.3098 38.0484C19.8716 38.2692 19.387 38.5133 18.5934 38.5368C18.587 38.5372 18.5806 38.5372 18.5745 38.5372C18.228 38.5372 17.8216 38.4567 17.4583 38.2715C16.5696 37.8238 15.9442 37.0886 15.5627 36.3072C15.5586 36.2989 15.5554 36.2905 15.5521 36.282C15.5492 36.2745 15.5463 36.2669 15.5428 36.2595C15.1727 35.4859 15.0018 34.6507 15 33.8069C15.0032 32.5396 15.3843 31.2101 16.3021 30.1152C16.3271 30.0849 16.3547 30.0564 16.3824 30.028C16.4005 30.0092 16.4187 29.9905 16.4361 29.9713C17.2909 29.0225 18.6058 28.3785 20.1039 28.3094C20.1226 28.3072 20.1411 28.3047 20.1596 28.3022C20.2104 28.2953 20.261 28.2884 20.3137 28.2884L22.2696 27.9787Z" fill="white"/>
<path d="M29.0799 25.7859C31.2484 24.3389 32.6773 21.8725 32.6773 19.0697C32.6773 14.6132 29.0651 11 24.6074 11C20.1507 11 16.5374 14.6132 16.5374 19.0697C16.5374 21.8719 17.9668 24.3389 20.1354 25.7859C21.4159 26.6399 22.953 27.14 24.6074 27.14C26.2622 27.14 27.7993 26.6399 29.0799 25.7859Z" fill="white"/>
<path d="M31.1397 57.883C31.1397 61.7032 28.8113 64.8001 24.9911 64.8001C21.1709 64.8001 18.4583 61.7032 18.4583 57.883C18.4583 54.0627 21.1709 50.9658 24.9911 50.9658C28.8113 50.9658 31.1397 54.0627 31.1397 57.883Z" fill="white"/>
</g>
<defs>
<filter id="filter0_d_108_382" x="0" y="0" width="49.342" height="83.8003" filterUnits="userSpaceOnUse" color-interpolation-filters="sRGB">
<feFlood flood-opacity="0" result="BackgroundImageFix"/>
<feColorMatrix in="SourceAlpha" type="matrix" values="0 0 0 0 0 0 0 0 0 0 0 0 0 0 0 0 0 0 127 0" result="hardAlpha"/>
<feOffset dy="4"/>
<feGaussianBlur stdDeviation="7.5"/>
<feComposite in2="hardAlpha" operator="out"/>
<feColorMatrix type="matrix" values="0 0 0 0 0 0 0 0 0 0 0 0 0 0 0 0 0 0 0.25 0"/>
<feBlend mode="normal" in2="BackgroundImageFix" result="effect1_dropShadow_108_382"/>
<feBlend mode="normal" in="SourceGraphic" in2="effect1_dropShadow_108_382" result="shape"/>
</filter>
</defs>
</svg>
