<svg width="58" height="83" viewBox="0 0 58 83" fill="none" xmlns="http://www.w3.org/2000/svg">
<g filter="url(#filter0_d_108_405)">
<path d="M29.5051 26.6118C25.1996 26.611 21.6961 23.1246 21.6841 18.8277C21.6721 14.5821 25.1559 11.0538 29.3356 11.0007C33.8483 10.9433 37.3167 14.5213 37.3209 18.8268C37.3244 23.1229 33.8081 26.6127 29.5051 26.6118Z" fill="white"/>
<path d="M42.2023 43.4465C41.7101 40.1852 40.8567 37.0318 39.3596 34.0804C38.3924 32.1733 37.1743 30.4597 35.3622 29.2434C34.2195 28.4756 32.9681 28.0724 31.6165 28.0048C31.5053 27.9988 31.3931 27.9954 31.2801 27.9945C31.085 28.0065 30.8898 28.0536 30.6835 28.1469C29.3773 28.7409 28.0523 28.7409 26.7349 28.1289C26.5518 28.0433 26.3309 27.9937 26.1263 27.9937H26.0065C24.5034 27.9979 23.1202 28.402 21.867 29.2434C20.055 30.4597 18.8369 32.1733 17.8697 34.0804C16.3717 37.0318 15.5192 40.1852 15.027 43.4465C14.849 44.6243 15.5654 45.618 16.7663 45.8183C17.7884 45.9878 18.8292 45.1806 19.0175 44.0953C19.0364 43.9883 19.0552 43.8821 19.0723 43.776C19.1006 43.6177 19.1271 43.4593 19.1562 43.3009C19.2692 42.6658 19.389 42.0315 19.5397 41.405C20.0704 39.2111 20.7748 37.078 21.9124 35.1102C21.9407 35.0631 21.9689 35.0152 22.0006 34.9698C22.0528 34.8868 22.1101 34.8063 22.1632 34.7233C22.1897 34.7387 22.2154 34.7541 22.242 34.7686V34.8191V35.7564C22.242 36.7665 22.2411 37.7748 22.2437 38.7849V44.6363H22.2454C22.2428 47.3813 22.2402 50.1256 22.2402 52.8707C22.3199 54.4996 22.236 56.1379 22.2736 57.7702C22.3318 60.3381 23.5396 62.395 25.5306 63.2442C25.7566 63.3409 25.9928 63.4222 26.2393 63.4864C27.2177 63.7423 28.2911 63.6867 29.3217 63.6841C30.2299 63.6816 31.0482 63.5369 31.762 63.2621C33.5733 62.5679 34.7186 61.0486 34.9822 58.9249C34.9916 54.1615 34.9865 49.3997 34.9831 44.6363H34.9848V38.7849C34.9856 38.582 34.9856 38.38 34.9856 38.1771C34.9873 37.4821 34.9865 36.7887 34.9865 36.0937V34.7695C35.013 34.7541 35.0387 34.7387 35.0652 34.7241C35.1491 34.8534 35.239 34.9784 35.316 35.111C36.4536 37.078 37.1589 39.2111 37.6888 41.4058C37.8719 42.1634 38.0089 42.932 38.1424 43.7007C38.1655 43.8325 38.1878 43.9643 38.2109 44.0961C38.3992 45.1815 39.4401 45.9887 40.4621 45.8192C41.663 45.618 42.3803 44.6243 42.2023 43.4465Z" fill="white"/>
</g>
<defs>
<filter id="filter0_d_108_405" x="0" y="0" width="57.2295" height="82.6909" filterUnits="userSpaceOnUse" color-interpolation-filters="sRGB">
<feFlood flood-opacity="0" result="BackgroundImageFix"/>
<feColorMatrix in="SourceAlpha" type="matrix" values="0 0 0 0 0 0 0 0 0 0 0 0 0 0 0 0 0 0 127 0" result="hardAlpha"/>
<feOffset dy="4"/>
<feGaussianBlur stdDeviation="7.5"/>
<feComposite in2="hardAlpha" operator="out"/>
<feColorMatrix type="matrix" values="0 0 0 0 0 0 0 0 0 0 0 0 0 0 0 0 0 0 0.25 0"/>
<feBlend mode="normal" in2="BackgroundImageFix" result="effect1_dropShadow_108_405"/>
<feBlend mode="normal" in="SourceGraphic" in2="effect1_dropShadow_108_405" result="shape"/>
</filter>
</defs>
</svg>
